<svg width="29" height="14" viewBox="0 0 29 14" fill="none" xmlns="http://www.w3.org/2000/svg">
<g opacity="0.7">
<path d="M15.1787 8.13867L13.416 11H12.0879L14.1045 7.86035C13.8766 7.77897 13.6569 7.66178 13.4453 7.50879C13.237 7.35579 13.0661 7.14746 12.9326 6.88379C12.8024 6.61686 12.7373 6.2832 12.7373 5.88281C12.7373 5.22526 12.9652 4.72396 13.4209 4.37891C13.8799 4.03385 14.5423 3.86133 15.4082 3.86133H17.5518V11H16.3799V8.13867H15.1787ZM16.3799 4.83301H15.457C15.1283 4.83301 14.8499 4.87207 14.6221 4.9502C14.3942 5.02507 14.2217 5.14551 14.1045 5.31152C13.9873 5.47428 13.9287 5.68913 13.9287 5.95605C13.9287 6.34017 14.0557 6.63802 14.3096 6.84961C14.5635 7.0612 14.9508 7.16699 15.4717 7.16699H16.3799V4.83301ZM18.8457 8.80273V7.83105H21.3652V8.80273H18.8457ZM27.0781 11L26.3799 9.01758H23.6504L22.9521 11H21.7168L24.373 3.83203H25.6719L28.3232 11H27.0781ZM26.0771 8.01172L25.3984 6.05859C25.3724 5.97396 25.335 5.85514 25.2861 5.70215C25.2373 5.5459 25.1885 5.38802 25.1396 5.22852C25.0908 5.06576 25.0501 4.92904 25.0176 4.81836C24.985 4.95182 24.9443 5.10156 24.8955 5.26758C24.8499 5.43034 24.8044 5.58333 24.7588 5.72656C24.7165 5.86979 24.6839 5.98047 24.6611 6.05859L23.9775 8.01172H26.0771Z" fill="#9873FF"/>
<g clip-path="url(#clip0_221_916)">
<path d="M10 7L9.295 6.295L6.5 9.085L6.5 3H5.5L5.5 9.085L2.71 6.29L2 7L6 11L10 7Z" fill="#9873FF"/>
</g>
</g>
<defs>
<clipPath id="clip0_221_916">
<rect width="12" height="12" fill="white" transform="translate(0 1)"/>
</clipPath>
</defs>
</svg>
